<svg width="36" height="36" viewBox="0 0 36 36" fill="none" xmlns="http://www.w3.org/2000/svg">
<g clip-path="url(#clip0_58_548)">
<path d="M6.33862 12.6433H13.7676C14.35 12.6433 14.8222 12.1711 14.8222 11.5886V7.35468C14.8222 6.77221 14.35 6.29999 13.7676 6.29999H6.33862C5.75615 6.29999 5.28394 6.77221 5.28394 7.35468V11.5887C5.28394 12.1712 5.75615 12.6433 6.33862 12.6433ZM7.39331 8.40936H12.7129V10.534H7.39331V8.40936Z" fill="#2C546A"/>
<path d="M13.7676 23.2211H6.33862C5.75615 23.2211 5.28394 23.6933 5.28394 24.2758V28.5248C5.28394 29.1073 5.75615 29.5795 6.33862 29.5795H13.7676C14.35 29.5795 14.8222 29.1073 14.8222 28.5248V24.2758C14.8222 23.6933 14.35 23.2211 13.7676 23.2211ZM12.7129 27.4701H7.39331V25.3304H12.7129V27.4701Z" fill="#2C546A"/>
<path d="M17.9038 8.40936H23.3332C23.9157 8.40936 24.3879 7.93714 24.3879 7.35468C24.3879 6.77221 23.9157 6.29999 23.3332 6.29999H17.9038C17.3213 6.29999 16.8491 6.77221 16.8491 7.35468C16.8491 7.93714 17.3213 8.40936 17.9038 8.40936Z" fill="#2C546A"/>
<path d="M23.3332 27.4701H17.9038C17.3213 27.4701 16.8491 27.9423 16.8491 28.5248C16.8491 29.1072 17.3213 29.5795 17.9038 29.5795H23.3332C23.9157 29.5795 24.3879 29.1072 24.3879 28.5248C24.3879 27.9423 23.9157 27.4701 23.3332 27.4701Z" fill="#2C546A"/>
<path d="M34.654 11.8369C34.5713 11.4727 34.3021 11.1795 33.9464 11.0659L28.6671 9.37997V1.05469C28.6671 0.472219 28.1949 0 27.6124 0H2.05933C1.47686 0 1.00464 0.472219 1.00464 1.05469V34.9453C1.00464 35.5278 1.47686 36 2.05933 36H27.6125C28.195 36 28.6672 35.5278 28.6672 34.9453V26.4399C30.4813 25.278 32.0078 23.699 33.1037 21.84C34.3412 19.7408 34.9953 17.3365 34.9953 14.887C34.9952 13.8593 34.8805 12.8332 34.654 11.8369ZM3.11401 33.8906V2.10938H26.5578V9.37997L22.9442 10.5339H17.9038C17.3213 10.5339 16.8491 11.0062 16.8491 11.5886C16.8491 12.1711 17.3213 12.6433 17.9038 12.6433H20.4137C20.2983 13.344 20.2375 14.0553 20.2314 14.768H6.33862C5.75615 14.768 5.28393 15.2402 5.28393 15.8227C5.28393 16.4052 5.75615 16.8774 6.33862 16.8774H20.3762C20.4817 17.5984 20.6434 18.3089 20.861 19.002H6.33862C5.75615 19.002 5.28393 19.4742 5.28393 20.0567C5.28393 20.6392 5.75615 21.1114 6.33862 21.1114H21.7226C21.8481 21.3578 21.9804 21.6011 22.1212 21.84C23.2172 23.699 24.7437 25.278 26.5577 26.4398V33.8906H3.11401ZM27.6124 24.612C24.3447 22.4795 22.339 18.8085 22.339 14.8869C22.339 14.2154 22.3968 13.5449 22.5111 12.8865L27.6124 11.2575L32.7137 12.8865C32.8281 13.5449 32.8859 14.2154 32.8859 14.8869C32.8859 18.8085 30.8802 22.4795 27.6124 24.612Z" fill="#2C546A"/>
<path d="M28.981 15.7562L26.7306 18.0065L26.2439 17.5198C25.832 17.1079 25.1643 17.1079 24.7524 17.5198C24.3405 17.9316 24.3405 18.5993 24.7524 19.0113L25.9849 20.2438C26.1827 20.4416 26.4509 20.5528 26.7307 20.5528C27.0104 20.5528 27.2787 20.4417 27.4764 20.2438L30.4725 17.2477C30.8844 16.8359 30.8844 16.1681 30.4725 15.7562C30.0606 15.3443 29.3928 15.3443 28.981 15.7562Z" fill="#2C546A"/>
</g>
<defs>
<clipPath id="clip0_58_548">
<rect width="36" height="36" fill="white"/>
</clipPath>
</defs>
</svg>
